<svg width="59" height="59" viewBox="0 0 59 59" fill="none" xmlns="http://www.w3.org/2000/svg">
<g filter="url(#filter0_d)">
<path d="M13.2346 23.0435C12.2079 22.636 11.0346 23.1362 10.7343 24.1991C9.75642 27.6608 9.75176 31.3395 10.7411 34.8249C11.9133 38.9541 14.415 42.5812 17.8585 45.1437C21.302 47.7062 25.4948 49.061 29.7867 48.9979C34.0785 48.9348 38.2297 47.4574 41.5963 44.7947C44.963 42.1321 47.3571 38.433 48.4073 34.2712C49.4575 30.1093 49.1052 25.7172 47.405 21.7759C45.7048 17.8347 42.7517 14.5646 39.0036 12.4726C35.8399 10.7069 32.2591 9.86384 28.6653 10.0178C27.5617 10.0651 26.8047 11.0917 26.9647 12.1846L27.2114 13.8695C27.3714 14.9624 28.3896 15.7033 29.4941 15.7028C31.8391 15.7018 34.1575 16.2988 36.2243 17.4523C38.8762 18.9325 40.9657 21.2463 42.1686 24.0349C43.3716 26.8235 43.6209 29.9311 42.8778 32.8758C42.1347 35.8205 40.4408 38.4378 38.0587 40.3217C35.6767 42.2057 32.7395 43.251 29.7028 43.2957C26.6661 43.3403 23.6995 42.3818 21.2631 40.5687C18.8267 38.7556 17.0565 36.1892 16.2272 33.2676C15.5809 30.9907 15.5341 28.5971 16.0753 26.3155C16.3303 25.2407 15.8439 24.0793 14.8173 23.6718L13.2346 23.0435Z" fill="url(#paint0_linear)"/>
</g>
<defs>
<filter id="filter0_d" x="0" y="0" width="59" height="59" filterUnits="userSpaceOnUse" color-interpolation-filters="sRGB">
<feFlood flood-opacity="0" result="BackgroundImageFix"/>
<feColorMatrix in="SourceAlpha" type="matrix" values="0 0 0 0 0 0 0 0 0 0 0 0 0 0 0 0 0 0 127 0"/>
<feOffset/>
<feGaussianBlur stdDeviation="5"/>
<feColorMatrix type="matrix" values="0 0 0 0 0.988235 0 0 0 0 0.741176 0 0 0 0 0.290196 0 0 0 0.25 0"/>
<feBlend mode="normal" in2="BackgroundImageFix" result="effect1_dropShadow"/>
<feBlend mode="normal" in="SourceGraphic" in2="effect1_dropShadow" result="shape"/>
</filter>
<linearGradient id="paint0_linear" x1="29.5" y1="10" x2="29.5" y2="49" gradientUnits="userSpaceOnUse">
<stop stop-color="#ED5749"/>
<stop offset="1" stop-color="#FEC74A"/>
</linearGradient>
</defs>
</svg>
