<svg width="39" height="33" viewBox="0 0 39 33" fill="none" xmlns="http://www.w3.org/2000/svg">
<g clip-path="url(#clip0)" filter="url(#filter0_d)">
<path d="M30.804 12.9879L23.9044 5.32166C23.7572 5.15913 23.5518 5.06714 23.334 5.06714H18.7343C18.4322 5.06714 18.1578 5.245 18.0336 5.52098C17.9109 5.7985 17.9615 6.12201 18.1639 6.34587L24.602 13.5L18.1639 20.6526C17.9615 20.878 17.9094 21.2015 18.0336 21.4775C18.1578 21.755 18.4322 21.9329 18.7343 21.9329H23.334C23.5518 21.9329 23.7572 21.8394 23.9044 21.6799L30.804 14.0137C31.0662 13.7223 31.0662 13.2777 30.804 12.9879Z" fill="#FEC74A"/>
<path d="M20.8372 12.9879L13.9376 5.32166C13.7904 5.15913 13.585 5.06714 13.3672 5.06714H8.76749C8.46544 5.06714 8.19099 5.245 8.06679 5.52098C7.94413 5.7985 7.99473 6.12201 8.19712 6.34587L14.6352 13.5L8.19712 20.6526C7.99473 20.878 7.9426 21.2015 8.06679 21.4775C8.19099 21.755 8.46544 21.9329 8.76749 21.9329H13.3672C13.585 21.9329 13.7904 21.8394 13.9376 21.6799L20.8372 14.0137C21.0994 13.7223 21.0994 13.2777 20.8372 12.9879Z" fill="#FEC74A"/>
</g>
<defs>
<filter id="filter0_d" x="0" y="-3" width="39" height="39" filterUnits="userSpaceOnUse" color-interpolation-filters="sRGB">
<feFlood flood-opacity="0" result="BackgroundImageFix"/>
<feColorMatrix in="SourceAlpha" type="matrix" values="0 0 0 0 0 0 0 0 0 0 0 0 0 0 0 0 0 0 127 0"/>
<feOffset dy="3"/>
<feGaussianBlur stdDeviation="4"/>
<feColorMatrix type="matrix" values="0 0 0 0 0.996078 0 0 0 0 0.780392 0 0 0 0 0.290196 0 0 0 0.25 0"/>
<feBlend mode="normal" in2="BackgroundImageFix" result="effect1_dropShadow"/>
<feBlend mode="normal" in="SourceGraphic" in2="effect1_dropShadow" result="shape"/>
</filter>
<clipPath id="clip0">
<rect width="23" height="23" fill="white" transform="translate(8 2)"/>
</clipPath>
</defs>
</svg>
