<svg width="41" height="39" viewBox="0 0 41 39" fill="none" xmlns="http://www.w3.org/2000/svg">
<path d="M40.1804 28.8731L25.8164 3.99348C23.4702 -0.116551 17.5372 -0.116551 15.1995 3.99348L0.827009 28.8731C-1.51917 32.9831 1.4009 38.089 6.13545 38.089H34.8213C39.5559 38.089 42.5266 32.9325 40.1804 28.8731ZM20.4995 32.5696C19.2504 32.5696 18.2124 31.5316 18.2124 30.2825C18.2124 29.0335 19.2504 27.9954 20.4995 27.9954C21.7485 27.9954 22.7866 29.0335 22.7359 30.3416C22.795 31.5316 21.6979 32.5696 20.4995 32.5696ZM22.584 17.7836C22.4828 19.5559 22.373 21.3198 22.2718 23.0921C22.2211 23.6659 22.2211 24.1892 22.2211 24.7546C22.1705 25.6914 21.4363 26.4172 20.4995 26.4172C19.5627 26.4172 18.8369 25.7421 18.7778 24.8053C18.6259 22.0456 18.4656 19.3365 18.3136 16.5768C18.263 15.851 18.2124 15.1167 18.1533 14.3909C18.1533 13.1925 18.8285 12.2051 19.9256 11.8928C21.0227 11.6312 22.1114 12.1545 22.584 13.1925C22.7444 13.5554 22.795 13.9183 22.795 14.3403C22.7444 15.4965 22.6347 16.6443 22.584 17.7836Z" fill="white" fill-opacity="0.25"/>
</svg>
